<mxfile host="app.diagrams.net" modified="2021-04-06T06:53:20.442Z" agent="5.0 (Windows)" etag="ydNytePQorpzdQRkjjf9" version="14.5.4" type="github" pages="4">
  <diagram id="C5RBs43oDa-KdzZeNtuy" name="Page-1">
    <mxGraphModel dx="1278" dy="547" grid="1" gridSize="10" guides="1" tooltips="1" connect="1" arrows="1" fold="1" page="1" pageScale="1" pageWidth="827" pageHeight="1169" math="0" shadow="0">
      <root>
        <mxCell id="WIyWlLk6GJQsqaUBKTNV-0" />
        <mxCell id="WIyWlLk6GJQsqaUBKTNV-1" parent="WIyWlLk6GJQsqaUBKTNV-0" />
        <mxCell id="WIyWlLk6GJQsqaUBKTNV-2" value="" style="rounded=0;html=1;jettySize=auto;orthogonalLoop=1;fontSize=11;endArrow=block;endFill=0;endSize=8;strokeWidth=1;shadow=0;labelBackgroundColor=none;edgeStyle=orthogonalEdgeStyle;" parent="WIyWlLk6GJQsqaUBKTNV-1" source="WIyWlLk6GJQsqaUBKTNV-3" target="WIyWlLk6GJQsqaUBKTNV-6" edge="1">
          <mxGeometry relative="1" as="geometry" />
        </mxCell>
        <mxCell id="WIyWlLk6GJQsqaUBKTNV-3" value="&lt;div&gt;counter = 0&lt;/div&gt;&lt;div&gt;total = 0&lt;br&gt;&lt;/div&gt;" style="rounded=1;whiteSpace=wrap;html=1;fontSize=12;glass=0;strokeWidth=1;shadow=0;" parent="WIyWlLk6GJQsqaUBKTNV-1" vertex="1">
          <mxGeometry x="160" y="80" width="120" height="40" as="geometry" />
        </mxCell>
        <mxCell id="WIyWlLk6GJQsqaUBKTNV-5" value="No" style="edgeStyle=orthogonalEdgeStyle;rounded=0;html=1;jettySize=auto;orthogonalLoop=1;fontSize=11;endArrow=block;endFill=0;endSize=8;strokeWidth=1;shadow=0;labelBackgroundColor=none;" parent="WIyWlLk6GJQsqaUBKTNV-1" source="WIyWlLk6GJQsqaUBKTNV-6" target="WIyWlLk6GJQsqaUBKTNV-7" edge="1">
          <mxGeometry y="10" relative="1" as="geometry">
            <mxPoint as="offset" />
          </mxGeometry>
        </mxCell>
        <mxCell id="yPlpDpCMvoldTj2tuN18-10" value="" style="edgeStyle=orthogonalEdgeStyle;rounded=0;orthogonalLoop=1;jettySize=auto;html=1;" parent="WIyWlLk6GJQsqaUBKTNV-1" source="WIyWlLk6GJQsqaUBKTNV-6" target="WIyWlLk6GJQsqaUBKTNV-11" edge="1">
          <mxGeometry relative="1" as="geometry" />
        </mxCell>
        <mxCell id="WIyWlLk6GJQsqaUBKTNV-6" value="counter &amp;lt;= 5 ?" style="rhombus;whiteSpace=wrap;html=1;shadow=0;fontFamily=Helvetica;fontSize=12;align=center;strokeWidth=1;spacing=6;spacingTop=-4;" parent="WIyWlLk6GJQsqaUBKTNV-1" vertex="1">
          <mxGeometry x="170" y="180" width="100" height="80" as="geometry" />
        </mxCell>
        <mxCell id="yPlpDpCMvoldTj2tuN18-4" style="edgeStyle=orthogonalEdgeStyle;rounded=0;orthogonalLoop=1;jettySize=auto;html=1;" parent="WIyWlLk6GJQsqaUBKTNV-1" source="WIyWlLk6GJQsqaUBKTNV-7" target="yPlpDpCMvoldTj2tuN18-3" edge="1">
          <mxGeometry relative="1" as="geometry" />
        </mxCell>
        <mxCell id="WIyWlLk6GJQsqaUBKTNV-7" value="print &quot;enter marks&quot;" style="rounded=1;whiteSpace=wrap;html=1;fontSize=12;glass=0;strokeWidth=1;shadow=0;" parent="WIyWlLk6GJQsqaUBKTNV-1" vertex="1">
          <mxGeometry x="330" y="260" width="120" height="40" as="geometry" />
        </mxCell>
        <mxCell id="WIyWlLk6GJQsqaUBKTNV-9" value="Yes" style="edgeStyle=orthogonalEdgeStyle;rounded=0;html=1;jettySize=auto;orthogonalLoop=1;fontSize=11;endArrow=block;endFill=0;endSize=8;strokeWidth=1;shadow=0;labelBackgroundColor=none;" parent="WIyWlLk6GJQsqaUBKTNV-1" edge="1">
          <mxGeometry y="10" relative="1" as="geometry">
            <mxPoint as="offset" />
            <mxPoint x="270" y="330" as="sourcePoint" />
            <mxPoint x="220" y="390" as="targetPoint" />
            <Array as="points">
              <mxPoint x="270" y="350" />
              <mxPoint x="220" y="350" />
            </Array>
          </mxGeometry>
        </mxCell>
        <mxCell id="WIyWlLk6GJQsqaUBKTNV-11" value="average = total/counter" style="rounded=1;whiteSpace=wrap;html=1;fontSize=12;glass=0;strokeWidth=1;shadow=0;" parent="WIyWlLk6GJQsqaUBKTNV-1" vertex="1">
          <mxGeometry x="160" y="310" width="120" height="40" as="geometry" />
        </mxCell>
        <mxCell id="yPlpDpCMvoldTj2tuN18-12" value="" style="edgeStyle=orthogonalEdgeStyle;rounded=0;orthogonalLoop=1;jettySize=auto;html=1;" parent="WIyWlLk6GJQsqaUBKTNV-1" target="yPlpDpCMvoldTj2tuN18-11" edge="1">
          <mxGeometry relative="1" as="geometry">
            <mxPoint x="220" y="430" as="sourcePoint" />
          </mxGeometry>
        </mxCell>
        <mxCell id="yPlpDpCMvoldTj2tuN18-1" value="" style="edgeStyle=orthogonalEdgeStyle;rounded=0;orthogonalLoop=1;jettySize=auto;html=1;entryX=0.5;entryY=0;entryDx=0;entryDy=0;" parent="WIyWlLk6GJQsqaUBKTNV-1" source="yPlpDpCMvoldTj2tuN18-0" target="WIyWlLk6GJQsqaUBKTNV-3" edge="1">
          <mxGeometry relative="1" as="geometry" />
        </mxCell>
        <mxCell id="yPlpDpCMvoldTj2tuN18-0" value="Start" style="ellipse;whiteSpace=wrap;html=1;" parent="WIyWlLk6GJQsqaUBKTNV-1" vertex="1">
          <mxGeometry x="170" width="100" height="60" as="geometry" />
        </mxCell>
        <mxCell id="yPlpDpCMvoldTj2tuN18-16" style="edgeStyle=orthogonalEdgeStyle;rounded=0;orthogonalLoop=1;jettySize=auto;html=1;" parent="WIyWlLk6GJQsqaUBKTNV-1" source="yPlpDpCMvoldTj2tuN18-2" target="WIyWlLk6GJQsqaUBKTNV-6" edge="1">
          <mxGeometry relative="1" as="geometry" />
        </mxCell>
        <mxCell id="yPlpDpCMvoldTj2tuN18-2" value="&lt;div&gt;counter += 1&lt;/div&gt;&lt;div&gt;total + mark&lt;br&gt;&lt;/div&gt;" style="rounded=1;whiteSpace=wrap;html=1;fontSize=12;glass=0;strokeWidth=1;shadow=0;" parent="WIyWlLk6GJQsqaUBKTNV-1" vertex="1">
          <mxGeometry x="330" y="110" width="120" height="40" as="geometry" />
        </mxCell>
        <mxCell id="yPlpDpCMvoldTj2tuN18-5" style="edgeStyle=orthogonalEdgeStyle;rounded=0;orthogonalLoop=1;jettySize=auto;html=1;entryX=0.5;entryY=1;entryDx=0;entryDy=0;" parent="WIyWlLk6GJQsqaUBKTNV-1" source="yPlpDpCMvoldTj2tuN18-3" target="yPlpDpCMvoldTj2tuN18-2" edge="1">
          <mxGeometry relative="1" as="geometry" />
        </mxCell>
        <mxCell id="yPlpDpCMvoldTj2tuN18-3" value="read mark" style="rounded=1;whiteSpace=wrap;html=1;fontSize=12;glass=0;strokeWidth=1;shadow=0;" parent="WIyWlLk6GJQsqaUBKTNV-1" vertex="1">
          <mxGeometry x="330" y="190" width="120" height="40" as="geometry" />
        </mxCell>
        <mxCell id="yPlpDpCMvoldTj2tuN18-11" value="end" style="ellipse;whiteSpace=wrap;html=1;rounded=1;shadow=0;strokeWidth=1;glass=0;" parent="WIyWlLk6GJQsqaUBKTNV-1" vertex="1">
          <mxGeometry x="175" y="470" width="90" height="50" as="geometry" />
        </mxCell>
        <mxCell id="yPlpDpCMvoldTj2tuN18-17" value="print average" style="shape=parallelogram;perimeter=parallelogramPerimeter;whiteSpace=wrap;html=1;fixedSize=1;" parent="WIyWlLk6GJQsqaUBKTNV-1" vertex="1">
          <mxGeometry x="170" y="390" width="100" height="40" as="geometry" />
        </mxCell>
      </root>
    </mxGraphModel>
  </diagram>
  <diagram id="gKu7ayBl5lMPPjCisPUy" name="Page-2">
    <mxGraphModel dx="1278" dy="547" grid="1" gridSize="10" guides="1" tooltips="1" connect="1" arrows="1" fold="1" page="1" pageScale="1" pageWidth="850" pageHeight="1100" math="0" shadow="0">
      <root>
        <mxCell id="lw4eJYJf7eUdu9GUzXVR-0" />
        <mxCell id="lw4eJYJf7eUdu9GUzXVR-1" parent="lw4eJYJf7eUdu9GUzXVR-0" />
        <mxCell id="i7xJvcFPk2SIAgG__Fq--0" value="" style="edgeStyle=orthogonalEdgeStyle;rounded=0;orthogonalLoop=1;jettySize=auto;html=1;" parent="lw4eJYJf7eUdu9GUzXVR-1" source="i7xJvcFPk2SIAgG__Fq--1" target="i7xJvcFPk2SIAgG__Fq--3" edge="1">
          <mxGeometry relative="1" as="geometry" />
        </mxCell>
        <mxCell id="i7xJvcFPk2SIAgG__Fq--1" value="Start" style="ellipse;whiteSpace=wrap;html=1;" parent="lw4eJYJf7eUdu9GUzXVR-1" vertex="1">
          <mxGeometry x="50" y="40" width="80" height="40" as="geometry" />
        </mxCell>
        <mxCell id="i7xJvcFPk2SIAgG__Fq--2" value="" style="edgeStyle=orthogonalEdgeStyle;rounded=0;orthogonalLoop=1;jettySize=auto;html=1;" parent="lw4eJYJf7eUdu9GUzXVR-1" source="i7xJvcFPk2SIAgG__Fq--3" target="i7xJvcFPk2SIAgG__Fq--6" edge="1">
          <mxGeometry relative="1" as="geometry" />
        </mxCell>
        <mxCell id="i7xJvcFPk2SIAgG__Fq--3" value="counter = 0" style="whiteSpace=wrap;html=1;" parent="lw4eJYJf7eUdu9GUzXVR-1" vertex="1">
          <mxGeometry x="40" y="110" width="100" height="30" as="geometry" />
        </mxCell>
        <mxCell id="i7xJvcFPk2SIAgG__Fq--4" value="FALSE" style="edgeStyle=orthogonalEdgeStyle;rounded=0;orthogonalLoop=1;jettySize=auto;html=1;" parent="lw4eJYJf7eUdu9GUzXVR-1" source="i7xJvcFPk2SIAgG__Fq--6" target="i7xJvcFPk2SIAgG__Fq--7" edge="1">
          <mxGeometry relative="1" as="geometry" />
        </mxCell>
        <mxCell id="i7xJvcFPk2SIAgG__Fq--5" value="" style="edgeStyle=orthogonalEdgeStyle;rounded=0;orthogonalLoop=1;jettySize=auto;html=1;entryX=0;entryY=0.5;entryDx=0;entryDy=0;" parent="lw4eJYJf7eUdu9GUzXVR-1" source="i7xJvcFPk2SIAgG__Fq--6" target="i7xJvcFPk2SIAgG__Fq--22" edge="1">
          <mxGeometry relative="1" as="geometry">
            <mxPoint x="269.99829787234034" y="207.5" as="targetPoint" />
          </mxGeometry>
        </mxCell>
        <mxCell id="i7xJvcFPk2SIAgG__Fq--6" value="counter &amp;lt; 10" style="shape=parallelogram;perimeter=parallelogramPerimeter;whiteSpace=wrap;html=1;fixedSize=1;" parent="lw4eJYJf7eUdu9GUzXVR-1" vertex="1">
          <mxGeometry x="40" y="190" width="100" height="35" as="geometry" />
        </mxCell>
        <mxCell id="i7xJvcFPk2SIAgG__Fq--7" value="end" style="ellipse;whiteSpace=wrap;html=1;" parent="lw4eJYJf7eUdu9GUzXVR-1" vertex="1">
          <mxGeometry x="45" y="282.5" width="90" height="37.5" as="geometry" />
        </mxCell>
        <mxCell id="i7xJvcFPk2SIAgG__Fq--8" value="" style="edgeStyle=orthogonalEdgeStyle;rounded=0;orthogonalLoop=1;jettySize=auto;html=1;" parent="lw4eJYJf7eUdu9GUzXVR-1" target="i7xJvcFPk2SIAgG__Fq--12" edge="1">
          <mxGeometry relative="1" as="geometry">
            <mxPoint x="317.5" y="236.87" as="sourcePoint" />
          </mxGeometry>
        </mxCell>
        <mxCell id="i7xJvcFPk2SIAgG__Fq--10" value="TRUE" style="edgeStyle=orthogonalEdgeStyle;rounded=0;orthogonalLoop=1;jettySize=auto;html=1;" parent="lw4eJYJf7eUdu9GUzXVR-1" source="i7xJvcFPk2SIAgG__Fq--12" target="i7xJvcFPk2SIAgG__Fq--13" edge="1">
          <mxGeometry relative="1" as="geometry" />
        </mxCell>
        <mxCell id="i7xJvcFPk2SIAgG__Fq--11" value="FALSE" style="edgeStyle=orthogonalEdgeStyle;rounded=0;orthogonalLoop=1;jettySize=auto;html=1;" parent="lw4eJYJf7eUdu9GUzXVR-1" source="i7xJvcFPk2SIAgG__Fq--12" target="i7xJvcFPk2SIAgG__Fq--15" edge="1">
          <mxGeometry relative="1" as="geometry" />
        </mxCell>
        <mxCell id="i7xJvcFPk2SIAgG__Fq--12" value="salary &amp;lt; 3000 ?" style="shape=parallelogram;perimeter=parallelogramPerimeter;whiteSpace=wrap;html=1;fixedSize=1;" parent="lw4eJYJf7eUdu9GUzXVR-1" vertex="1">
          <mxGeometry x="261.25" y="270" width="112.5" height="33.75" as="geometry" />
        </mxCell>
        <mxCell id="i7xJvcFPk2SIAgG__Fq--35" style="edgeStyle=orthogonalEdgeStyle;rounded=0;orthogonalLoop=1;jettySize=auto;html=1;" parent="lw4eJYJf7eUdu9GUzXVR-1" source="i7xJvcFPk2SIAgG__Fq--13" target="i7xJvcFPk2SIAgG__Fq--36" edge="1">
          <mxGeometry relative="1" as="geometry">
            <mxPoint x="182.5" y="849.9999999999998" as="targetPoint" />
            <Array as="points">
              <mxPoint x="183" y="835" />
            </Array>
          </mxGeometry>
        </mxCell>
        <mxCell id="i7xJvcFPk2SIAgG__Fq--13" value="taxRate = 0" style="whiteSpace=wrap;html=1;" parent="lw4eJYJf7eUdu9GUzXVR-1" vertex="1">
          <mxGeometry x="135" y="330" width="95" height="43.13" as="geometry" />
        </mxCell>
        <mxCell id="i7xJvcFPk2SIAgG__Fq--14" value="FALSE" style="edgeStyle=orthogonalEdgeStyle;rounded=0;orthogonalLoop=1;jettySize=auto;html=1;" parent="lw4eJYJf7eUdu9GUzXVR-1" source="i7xJvcFPk2SIAgG__Fq--15" target="i7xJvcFPk2SIAgG__Fq--17" edge="1">
          <mxGeometry relative="1" as="geometry" />
        </mxCell>
        <mxCell id="i7xJvcFPk2SIAgG__Fq--24" value="" style="edgeStyle=orthogonalEdgeStyle;rounded=0;orthogonalLoop=1;jettySize=auto;html=1;" parent="lw4eJYJf7eUdu9GUzXVR-1" source="i7xJvcFPk2SIAgG__Fq--15" target="i7xJvcFPk2SIAgG__Fq--23" edge="1">
          <mxGeometry relative="1" as="geometry" />
        </mxCell>
        <mxCell id="i7xJvcFPk2SIAgG__Fq--15" value="salary &amp;lt; 5000 ?" style="shape=parallelogram;perimeter=parallelogramPerimeter;whiteSpace=wrap;html=1;fixedSize=1;" parent="lw4eJYJf7eUdu9GUzXVR-1" vertex="1">
          <mxGeometry x="375" y="330.01" width="105" height="50" as="geometry" />
        </mxCell>
        <mxCell id="i7xJvcFPk2SIAgG__Fq--16" value="FALSE" style="edgeStyle=orthogonalEdgeStyle;rounded=0;orthogonalLoop=1;jettySize=auto;html=1;" parent="lw4eJYJf7eUdu9GUzXVR-1" source="i7xJvcFPk2SIAgG__Fq--17" target="i7xJvcFPk2SIAgG__Fq--18" edge="1">
          <mxGeometry relative="1" as="geometry" />
        </mxCell>
        <mxCell id="i7xJvcFPk2SIAgG__Fq--26" value="" style="edgeStyle=orthogonalEdgeStyle;rounded=0;orthogonalLoop=1;jettySize=auto;html=1;" parent="lw4eJYJf7eUdu9GUzXVR-1" source="i7xJvcFPk2SIAgG__Fq--17" target="i7xJvcFPk2SIAgG__Fq--25" edge="1">
          <mxGeometry relative="1" as="geometry" />
        </mxCell>
        <mxCell id="i7xJvcFPk2SIAgG__Fq--17" value="&lt;div&gt;salary &amp;lt; 7000 ?&lt;br&gt;&lt;/div&gt;" style="shape=parallelogram;perimeter=parallelogramPerimeter;whiteSpace=wrap;html=1;fixedSize=1;" parent="lw4eJYJf7eUdu9GUzXVR-1" vertex="1">
          <mxGeometry x="490" y="400" width="110" height="50" as="geometry" />
        </mxCell>
        <mxCell id="i7xJvcFPk2SIAgG__Fq--20" value="FALSE" style="edgeStyle=orthogonalEdgeStyle;rounded=0;orthogonalLoop=1;jettySize=auto;html=1;" parent="lw4eJYJf7eUdu9GUzXVR-1" source="i7xJvcFPk2SIAgG__Fq--18" target="i7xJvcFPk2SIAgG__Fq--19" edge="1">
          <mxGeometry relative="1" as="geometry" />
        </mxCell>
        <mxCell id="i7xJvcFPk2SIAgG__Fq--28" value="" style="edgeStyle=orthogonalEdgeStyle;rounded=0;orthogonalLoop=1;jettySize=auto;html=1;" parent="lw4eJYJf7eUdu9GUzXVR-1" source="i7xJvcFPk2SIAgG__Fq--18" target="i7xJvcFPk2SIAgG__Fq--27" edge="1">
          <mxGeometry relative="1" as="geometry" />
        </mxCell>
        <mxCell id="i7xJvcFPk2SIAgG__Fq--18" value="salary &amp;lt; 8000 ?" style="shape=parallelogram;perimeter=parallelogramPerimeter;whiteSpace=wrap;html=1;fixedSize=1;" parent="lw4eJYJf7eUdu9GUzXVR-1" vertex="1">
          <mxGeometry x="610" y="470" width="120" height="60" as="geometry" />
        </mxCell>
        <mxCell id="i7xJvcFPk2SIAgG__Fq--30" value="" style="edgeStyle=orthogonalEdgeStyle;rounded=0;orthogonalLoop=1;jettySize=auto;html=1;" parent="lw4eJYJf7eUdu9GUzXVR-1" source="i7xJvcFPk2SIAgG__Fq--19" target="i7xJvcFPk2SIAgG__Fq--29" edge="1">
          <mxGeometry relative="1" as="geometry" />
        </mxCell>
        <mxCell id="i7xJvcFPk2SIAgG__Fq--32" value="" style="edgeStyle=orthogonalEdgeStyle;rounded=0;orthogonalLoop=1;jettySize=auto;html=1;" parent="lw4eJYJf7eUdu9GUzXVR-1" source="i7xJvcFPk2SIAgG__Fq--19" target="i7xJvcFPk2SIAgG__Fq--31" edge="1">
          <mxGeometry relative="1" as="geometry" />
        </mxCell>
        <mxCell id="i7xJvcFPk2SIAgG__Fq--19" value="salary &amp;lt; 9000 ?" style="shape=parallelogram;perimeter=parallelogramPerimeter;whiteSpace=wrap;html=1;fixedSize=1;" parent="lw4eJYJf7eUdu9GUzXVR-1" vertex="1">
          <mxGeometry x="740" y="550" width="120" height="60" as="geometry" />
        </mxCell>
        <mxCell id="i7xJvcFPk2SIAgG__Fq--22" value="Read salary" style="rhombus;whiteSpace=wrap;html=1;" parent="lw4eJYJf7eUdu9GUzXVR-1" vertex="1">
          <mxGeometry x="277.5" y="167.5" width="80" height="80" as="geometry" />
        </mxCell>
        <mxCell id="i7xJvcFPk2SIAgG__Fq--37" style="edgeStyle=orthogonalEdgeStyle;rounded=0;orthogonalLoop=1;jettySize=auto;html=1;entryX=0;entryY=0.5;entryDx=0;entryDy=0;" parent="lw4eJYJf7eUdu9GUzXVR-1" source="i7xJvcFPk2SIAgG__Fq--23" target="i7xJvcFPk2SIAgG__Fq--36" edge="1">
          <mxGeometry relative="1" as="geometry">
            <mxPoint x="283.75" y="829.9999999999998" as="targetPoint" />
            <Array as="points">
              <mxPoint x="284" y="830" />
            </Array>
          </mxGeometry>
        </mxCell>
        <mxCell id="i7xJvcFPk2SIAgG__Fq--23" value="&lt;br&gt;taxRate = 0.06&lt;br&gt;" style="whiteSpace=wrap;html=1;" parent="lw4eJYJf7eUdu9GUzXVR-1" vertex="1">
          <mxGeometry x="230" y="400" width="107.5" height="34.99" as="geometry" />
        </mxCell>
        <mxCell id="i7xJvcFPk2SIAgG__Fq--38" style="edgeStyle=orthogonalEdgeStyle;rounded=0;orthogonalLoop=1;jettySize=auto;html=1;entryX=0;entryY=0.5;entryDx=0;entryDy=0;" parent="lw4eJYJf7eUdu9GUzXVR-1" source="i7xJvcFPk2SIAgG__Fq--25" target="i7xJvcFPk2SIAgG__Fq--36" edge="1">
          <mxGeometry relative="1" as="geometry">
            <mxPoint x="417.5" y="829.9999999999998" as="targetPoint" />
            <Array as="points">
              <mxPoint x="400" y="830" />
            </Array>
          </mxGeometry>
        </mxCell>
        <mxCell id="i7xJvcFPk2SIAgG__Fq--25" value="&lt;br&gt;taxRate = 0.08" style="whiteSpace=wrap;html=1;" parent="lw4eJYJf7eUdu9GUzXVR-1" vertex="1">
          <mxGeometry x="370" y="460" width="95" height="35" as="geometry" />
        </mxCell>
        <mxCell id="i7xJvcFPk2SIAgG__Fq--39" style="edgeStyle=orthogonalEdgeStyle;rounded=0;orthogonalLoop=1;jettySize=auto;html=1;" parent="lw4eJYJf7eUdu9GUzXVR-1" source="i7xJvcFPk2SIAgG__Fq--27" edge="1">
          <mxGeometry relative="1" as="geometry">
            <mxPoint x="532.5" y="809.9999999999998" as="targetPoint" />
          </mxGeometry>
        </mxCell>
        <mxCell id="i7xJvcFPk2SIAgG__Fq--27" value="&lt;br&gt;taxRate = 0.12&lt;br&gt;" style="whiteSpace=wrap;html=1;" parent="lw4eJYJf7eUdu9GUzXVR-1" vertex="1">
          <mxGeometry x="490" y="540" width="85" height="40" as="geometry" />
        </mxCell>
        <mxCell id="i7xJvcFPk2SIAgG__Fq--40" style="edgeStyle=orthogonalEdgeStyle;rounded=0;orthogonalLoop=1;jettySize=auto;html=1;entryX=1;entryY=0.5;entryDx=0;entryDy=0;" parent="lw4eJYJf7eUdu9GUzXVR-1" source="i7xJvcFPk2SIAgG__Fq--29" target="i7xJvcFPk2SIAgG__Fq--36" edge="1">
          <mxGeometry relative="1" as="geometry">
            <Array as="points">
              <mxPoint x="650" y="830" />
            </Array>
          </mxGeometry>
        </mxCell>
        <mxCell id="i7xJvcFPk2SIAgG__Fq--29" value="&lt;br&gt;taxRate = 0.16&lt;br&gt;" style="whiteSpace=wrap;html=1;" parent="lw4eJYJf7eUdu9GUzXVR-1" vertex="1">
          <mxGeometry x="600" y="620" width="90" height="40" as="geometry" />
        </mxCell>
        <mxCell id="i7xJvcFPk2SIAgG__Fq--41" style="edgeStyle=orthogonalEdgeStyle;rounded=0;orthogonalLoop=1;jettySize=auto;html=1;" parent="lw4eJYJf7eUdu9GUzXVR-1" source="i7xJvcFPk2SIAgG__Fq--31" edge="1">
          <mxGeometry relative="1" as="geometry">
            <mxPoint x="550" y="829.9999999999998" as="targetPoint" />
            <Array as="points">
              <mxPoint x="940" y="830" />
            </Array>
          </mxGeometry>
        </mxCell>
        <mxCell id="i7xJvcFPk2SIAgG__Fq--31" value="taxRate = 0.40" style="whiteSpace=wrap;html=1;" parent="lw4eJYJf7eUdu9GUzXVR-1" vertex="1">
          <mxGeometry x="890" y="620" width="100" height="40" as="geometry" />
        </mxCell>
        <mxCell id="i7xJvcFPk2SIAgG__Fq--43" value="" style="edgeStyle=orthogonalEdgeStyle;rounded=0;orthogonalLoop=1;jettySize=auto;html=1;" parent="lw4eJYJf7eUdu9GUzXVR-1" source="i7xJvcFPk2SIAgG__Fq--36" target="i7xJvcFPk2SIAgG__Fq--42" edge="1">
          <mxGeometry relative="1" as="geometry" />
        </mxCell>
        <mxCell id="i7xJvcFPk2SIAgG__Fq--36" value="" style="ellipse;whiteSpace=wrap;html=1;aspect=fixed;" parent="lw4eJYJf7eUdu9GUzXVR-1" vertex="1">
          <mxGeometry x="510" y="810" width="40" height="40" as="geometry" />
        </mxCell>
        <mxCell id="i7xJvcFPk2SIAgG__Fq--45" value="" style="edgeStyle=orthogonalEdgeStyle;rounded=0;orthogonalLoop=1;jettySize=auto;html=1;" parent="lw4eJYJf7eUdu9GUzXVR-1" source="i7xJvcFPk2SIAgG__Fq--42" target="i7xJvcFPk2SIAgG__Fq--44" edge="1">
          <mxGeometry relative="1" as="geometry" />
        </mxCell>
        <mxCell id="i7xJvcFPk2SIAgG__Fq--42" value="tax = salary * taxRate" style="whiteSpace=wrap;html=1;" parent="lw4eJYJf7eUdu9GUzXVR-1" vertex="1">
          <mxGeometry x="465" y="890" width="130" height="40" as="geometry" />
        </mxCell>
        <mxCell id="i7xJvcFPk2SIAgG__Fq--47" value="" style="edgeStyle=orthogonalEdgeStyle;rounded=0;orthogonalLoop=1;jettySize=auto;html=1;" parent="lw4eJYJf7eUdu9GUzXVR-1" source="i7xJvcFPk2SIAgG__Fq--44" target="i7xJvcFPk2SIAgG__Fq--46" edge="1">
          <mxGeometry relative="1" as="geometry" />
        </mxCell>
        <mxCell id="i7xJvcFPk2SIAgG__Fq--44" value="netSalary = salary - tax" style="whiteSpace=wrap;html=1;" parent="lw4eJYJf7eUdu9GUzXVR-1" vertex="1">
          <mxGeometry x="457.5" y="960" width="145" height="40" as="geometry" />
        </mxCell>
        <mxCell id="i7xJvcFPk2SIAgG__Fq--49" value="" style="edgeStyle=orthogonalEdgeStyle;rounded=0;orthogonalLoop=1;jettySize=auto;html=1;" parent="lw4eJYJf7eUdu9GUzXVR-1" source="i7xJvcFPk2SIAgG__Fq--46" target="i7xJvcFPk2SIAgG__Fq--48" edge="1">
          <mxGeometry relative="1" as="geometry" />
        </mxCell>
        <mxCell id="i7xJvcFPk2SIAgG__Fq--46" value="Print netSalary" style="rhombus;whiteSpace=wrap;html=1;" parent="lw4eJYJf7eUdu9GUzXVR-1" vertex="1">
          <mxGeometry x="470" y="1050" width="120" height="80" as="geometry" />
        </mxCell>
        <mxCell id="i7xJvcFPk2SIAgG__Fq--50" style="edgeStyle=orthogonalEdgeStyle;rounded=0;orthogonalLoop=1;jettySize=auto;html=1;" parent="lw4eJYJf7eUdu9GUzXVR-1" source="i7xJvcFPk2SIAgG__Fq--48" edge="1">
          <mxGeometry relative="1" as="geometry">
            <mxPoint x="90" y="160" as="targetPoint" />
            <Array as="points">
              <mxPoint x="1150" y="1200" />
              <mxPoint x="1150" y="160" />
            </Array>
          </mxGeometry>
        </mxCell>
        <mxCell id="i7xJvcFPk2SIAgG__Fq--48" value="counter = counter + 1" style="whiteSpace=wrap;html=1;" parent="lw4eJYJf7eUdu9GUzXVR-1" vertex="1">
          <mxGeometry x="472.5" y="1170" width="117.5" height="60" as="geometry" />
        </mxCell>
      </root>
    </mxGraphModel>
  </diagram>
  <diagram id="RvEELui9z2lHZbQNg3ZN" name="Page-3">
    <mxGraphModel dx="1278" dy="547" grid="1" gridSize="10" guides="1" tooltips="1" connect="1" arrows="1" fold="1" page="1" pageScale="1" pageWidth="850" pageHeight="1100" math="0" shadow="0">
      <root>
        <mxCell id="uLNajjAA08duzHdWAN3I-0" />
        <mxCell id="uLNajjAA08duzHdWAN3I-1" parent="uLNajjAA08duzHdWAN3I-0" />
        <mxCell id="X-Tj9PRPqMLh42POl-st-24" value="" style="edgeStyle=orthogonalEdgeStyle;rounded=0;orthogonalLoop=1;jettySize=auto;html=1;" parent="uLNajjAA08duzHdWAN3I-1" source="X-Tj9PRPqMLh42POl-st-0" target="X-Tj9PRPqMLh42POl-st-23" edge="1">
          <mxGeometry relative="1" as="geometry" />
        </mxCell>
        <mxCell id="X-Tj9PRPqMLh42POl-st-0" value="START" style="ellipse;whiteSpace=wrap;html=1;" parent="uLNajjAA08duzHdWAN3I-1" vertex="1">
          <mxGeometry x="20" width="80" height="40" as="geometry" />
        </mxCell>
        <mxCell id="X-Tj9PRPqMLh42POl-st-10" value="" style="edgeStyle=orthogonalEdgeStyle;rounded=0;orthogonalLoop=1;jettySize=auto;html=1;" parent="uLNajjAA08duzHdWAN3I-1" source="X-Tj9PRPqMLh42POl-st-5" target="X-Tj9PRPqMLh42POl-st-9" edge="1">
          <mxGeometry relative="1" as="geometry" />
        </mxCell>
        <mxCell id="X-Tj9PRPqMLh42POl-st-5" value="sum = 0" style="whiteSpace=wrap;html=1;" parent="uLNajjAA08duzHdWAN3I-1" vertex="1">
          <mxGeometry x="272.5" y="160" width="100" height="30" as="geometry" />
        </mxCell>
        <mxCell id="X-Tj9PRPqMLh42POl-st-14" value="TRUE" style="edgeStyle=orthogonalEdgeStyle;rounded=0;orthogonalLoop=1;jettySize=auto;html=1;" parent="uLNajjAA08duzHdWAN3I-1" source="X-Tj9PRPqMLh42POl-st-9" target="X-Tj9PRPqMLh42POl-st-13" edge="1">
          <mxGeometry relative="1" as="geometry" />
        </mxCell>
        <mxCell id="X-Tj9PRPqMLh42POl-st-37" value="FALSE" style="edgeStyle=orthogonalEdgeStyle;rounded=0;orthogonalLoop=1;jettySize=auto;html=1;" parent="uLNajjAA08duzHdWAN3I-1" source="X-Tj9PRPqMLh42POl-st-9" target="X-Tj9PRPqMLh42POl-st-36" edge="1">
          <mxGeometry relative="1" as="geometry" />
        </mxCell>
        <mxCell id="X-Tj9PRPqMLh42POl-st-9" value="counter &amp;lt; 5" style="rhombus;whiteSpace=wrap;html=1;" parent="uLNajjAA08duzHdWAN3I-1" vertex="1">
          <mxGeometry x="278.75" y="240" width="87.5" height="70" as="geometry" />
        </mxCell>
        <mxCell id="X-Tj9PRPqMLh42POl-st-16" value="" style="edgeStyle=orthogonalEdgeStyle;rounded=0;orthogonalLoop=1;jettySize=auto;html=1;" parent="uLNajjAA08duzHdWAN3I-1" source="X-Tj9PRPqMLh42POl-st-13" target="X-Tj9PRPqMLh42POl-st-15" edge="1">
          <mxGeometry relative="1" as="geometry" />
        </mxCell>
        <mxCell id="X-Tj9PRPqMLh42POl-st-13" value="print &quot;Enter marks&quot;" style="shape=parallelogram;perimeter=parallelogramPerimeter;whiteSpace=wrap;html=1;fixedSize=1;" parent="uLNajjAA08duzHdWAN3I-1" vertex="1">
          <mxGeometry x="425" y="248.75" width="127.5" height="52.5" as="geometry" />
        </mxCell>
        <mxCell id="X-Tj9PRPqMLh42POl-st-18" value="" style="edgeStyle=orthogonalEdgeStyle;rounded=0;orthogonalLoop=1;jettySize=auto;html=1;" parent="uLNajjAA08duzHdWAN3I-1" source="X-Tj9PRPqMLh42POl-st-15" target="X-Tj9PRPqMLh42POl-st-17" edge="1">
          <mxGeometry relative="1" as="geometry" />
        </mxCell>
        <mxCell id="X-Tj9PRPqMLh42POl-st-15" value="Read marks" style="shape=parallelogram;perimeter=parallelogramPerimeter;whiteSpace=wrap;html=1;fixedSize=1;" parent="uLNajjAA08duzHdWAN3I-1" vertex="1">
          <mxGeometry x="430.63" y="330" width="116.25" height="50" as="geometry" />
        </mxCell>
        <mxCell id="X-Tj9PRPqMLh42POl-st-20" value="" style="edgeStyle=orthogonalEdgeStyle;rounded=0;orthogonalLoop=1;jettySize=auto;html=1;" parent="uLNajjAA08duzHdWAN3I-1" source="X-Tj9PRPqMLh42POl-st-17" target="X-Tj9PRPqMLh42POl-st-19" edge="1">
          <mxGeometry relative="1" as="geometry" />
        </mxCell>
        <mxCell id="X-Tj9PRPqMLh42POl-st-17" value="sum = sum + marks" style="whiteSpace=wrap;html=1;" parent="uLNajjAA08duzHdWAN3I-1" vertex="1">
          <mxGeometry x="430.63" y="410" width="116.25" height="35" as="geometry" />
        </mxCell>
        <mxCell id="X-Tj9PRPqMLh42POl-st-40" style="edgeStyle=orthogonalEdgeStyle;rounded=0;orthogonalLoop=1;jettySize=auto;html=1;" parent="uLNajjAA08duzHdWAN3I-1" source="X-Tj9PRPqMLh42POl-st-19" edge="1">
          <mxGeometry relative="1" as="geometry">
            <mxPoint x="330" y="220" as="targetPoint" />
            <Array as="points">
              <mxPoint x="640" y="504" />
            </Array>
          </mxGeometry>
        </mxCell>
        <mxCell id="X-Tj9PRPqMLh42POl-st-19" value="counter = counter + 1" style="whiteSpace=wrap;html=1;" parent="uLNajjAA08duzHdWAN3I-1" vertex="1">
          <mxGeometry x="430.63" y="490" width="116.25" height="27.5" as="geometry" />
        </mxCell>
        <mxCell id="X-Tj9PRPqMLh42POl-st-27" value="" style="edgeStyle=orthogonalEdgeStyle;rounded=0;orthogonalLoop=1;jettySize=auto;html=1;" parent="uLNajjAA08duzHdWAN3I-1" source="X-Tj9PRPqMLh42POl-st-22" target="X-Tj9PRPqMLh42POl-st-5" edge="1">
          <mxGeometry relative="1" as="geometry" />
        </mxCell>
        <mxCell id="X-Tj9PRPqMLh42POl-st-22" value="&lt;div&gt;counter = 0&lt;/div&gt;" style="whiteSpace=wrap;html=1;" parent="uLNajjAA08duzHdWAN3I-1" vertex="1">
          <mxGeometry x="270" y="80" width="105" height="30" as="geometry" />
        </mxCell>
        <mxCell id="X-Tj9PRPqMLh42POl-st-26" value="" style="edgeStyle=orthogonalEdgeStyle;rounded=0;orthogonalLoop=1;jettySize=auto;html=1;" parent="uLNajjAA08duzHdWAN3I-1" source="X-Tj9PRPqMLh42POl-st-23" target="X-Tj9PRPqMLh42POl-st-25" edge="1">
          <mxGeometry relative="1" as="geometry" />
        </mxCell>
        <mxCell id="X-Tj9PRPqMLh42POl-st-23" value="student = 0" style="whiteSpace=wrap;html=1;" parent="uLNajjAA08duzHdWAN3I-1" vertex="1">
          <mxGeometry x="150" width="90" height="40" as="geometry" />
        </mxCell>
        <mxCell id="X-Tj9PRPqMLh42POl-st-29" value="TRUE" style="edgeStyle=orthogonalEdgeStyle;rounded=0;orthogonalLoop=1;jettySize=auto;html=1;" parent="uLNajjAA08duzHdWAN3I-1" source="X-Tj9PRPqMLh42POl-st-25" target="X-Tj9PRPqMLh42POl-st-22" edge="1">
          <mxGeometry relative="1" as="geometry" />
        </mxCell>
        <mxCell id="X-Tj9PRPqMLh42POl-st-42" value="FALSE" style="edgeStyle=orthogonalEdgeStyle;rounded=0;orthogonalLoop=1;jettySize=auto;html=1;" parent="uLNajjAA08duzHdWAN3I-1" source="X-Tj9PRPqMLh42POl-st-25" target="X-Tj9PRPqMLh42POl-st-41" edge="1">
          <mxGeometry relative="1" as="geometry" />
        </mxCell>
        <mxCell id="X-Tj9PRPqMLh42POl-st-25" value="student &amp;lt; 3" style="rhombus;whiteSpace=wrap;html=1;" parent="uLNajjAA08duzHdWAN3I-1" vertex="1">
          <mxGeometry x="157.5" y="60" width="75" height="70" as="geometry" />
        </mxCell>
        <mxCell id="X-Tj9PRPqMLh42POl-st-44" style="edgeStyle=orthogonalEdgeStyle;rounded=0;orthogonalLoop=1;jettySize=auto;html=1;" parent="uLNajjAA08duzHdWAN3I-1" source="X-Tj9PRPqMLh42POl-st-30" edge="1">
          <mxGeometry relative="1" as="geometry">
            <mxPoint x="198" y="50" as="targetPoint" />
            <Array as="points">
              <mxPoint x="198" y="560" />
              <mxPoint x="750" y="560" />
            </Array>
          </mxGeometry>
        </mxCell>
        <mxCell id="X-Tj9PRPqMLh42POl-st-30" value="student = student + 1" style="whiteSpace=wrap;html=1;" parent="uLNajjAA08duzHdWAN3I-1" vertex="1">
          <mxGeometry x="136.88" y="430" width="121.24" height="38.75" as="geometry" />
        </mxCell>
        <mxCell id="X-Tj9PRPqMLh42POl-st-39" value="" style="edgeStyle=orthogonalEdgeStyle;rounded=0;orthogonalLoop=1;jettySize=auto;html=1;" parent="uLNajjAA08duzHdWAN3I-1" source="X-Tj9PRPqMLh42POl-st-36" target="X-Tj9PRPqMLh42POl-st-38" edge="1">
          <mxGeometry relative="1" as="geometry" />
        </mxCell>
        <mxCell id="X-Tj9PRPqMLh42POl-st-36" value="average = sum / counter + 1" style="whiteSpace=wrap;html=1;" parent="uLNajjAA08duzHdWAN3I-1" vertex="1">
          <mxGeometry x="150" y="247.5" width="95" height="55" as="geometry" />
        </mxCell>
        <mxCell id="X-Tj9PRPqMLh42POl-st-43" value="" style="edgeStyle=orthogonalEdgeStyle;rounded=0;orthogonalLoop=1;jettySize=auto;html=1;" parent="uLNajjAA08duzHdWAN3I-1" source="X-Tj9PRPqMLh42POl-st-38" target="X-Tj9PRPqMLh42POl-st-30" edge="1">
          <mxGeometry relative="1" as="geometry" />
        </mxCell>
        <mxCell id="X-Tj9PRPqMLh42POl-st-38" value="print average" style="shape=parallelogram;perimeter=parallelogramPerimeter;whiteSpace=wrap;html=1;fixedSize=1;" parent="uLNajjAA08duzHdWAN3I-1" vertex="1">
          <mxGeometry x="146.25" y="350" width="102.5" height="40" as="geometry" />
        </mxCell>
        <mxCell id="X-Tj9PRPqMLh42POl-st-41" value="end" style="ellipse;whiteSpace=wrap;html=1;" parent="uLNajjAA08duzHdWAN3I-1" vertex="1">
          <mxGeometry x="20" y="160" width="80" height="55" as="geometry" />
        </mxCell>
      </root>
    </mxGraphModel>
  </diagram>
  <diagram id="sPS7A8bvJn-U_gjYK9v9" name="Page-4">
    <mxGraphModel dx="4152" dy="2188" grid="1" gridSize="10" guides="1" tooltips="1" connect="1" arrows="1" fold="1" page="1" pageScale="1" pageWidth="850" pageHeight="1100" math="0" shadow="0">
      <root>
        <mxCell id="44jfnPMcd00HxYmpUgRE-0" />
        <mxCell id="44jfnPMcd00HxYmpUgRE-1" parent="44jfnPMcd00HxYmpUgRE-0" />
        <mxCell id="nxiC7LZ5U8ALAZ2JfrbZ-1" value="" style="edgeStyle=orthogonalEdgeStyle;rounded=0;orthogonalLoop=1;jettySize=auto;html=1;" edge="1" parent="44jfnPMcd00HxYmpUgRE-1" source="oNcIODxs9b3ZprGOy9_q-0" target="nxiC7LZ5U8ALAZ2JfrbZ-0">
          <mxGeometry relative="1" as="geometry" />
        </mxCell>
        <mxCell id="oNcIODxs9b3ZprGOy9_q-0" value="START" style="ellipse;whiteSpace=wrap;html=1;" vertex="1" parent="44jfnPMcd00HxYmpUgRE-1">
          <mxGeometry x="232.5" y="10" width="90" height="50" as="geometry" />
        </mxCell>
        <mxCell id="IxzSpj61FLZ2-yhwaa_Y-3" value="" style="edgeStyle=orthogonalEdgeStyle;rounded=0;orthogonalLoop=1;jettySize=auto;html=1;" edge="1" parent="44jfnPMcd00HxYmpUgRE-1" source="IxzSpj61FLZ2-yhwaa_Y-0" target="IxzSpj61FLZ2-yhwaa_Y-2">
          <mxGeometry relative="1" as="geometry" />
        </mxCell>
        <mxCell id="IxzSpj61FLZ2-yhwaa_Y-0" value="print &quot;Enter salary&quot;" style="shape=parallelogram;perimeter=parallelogramPerimeter;whiteSpace=wrap;html=1;fixedSize=1;" vertex="1" parent="44jfnPMcd00HxYmpUgRE-1">
          <mxGeometry x="210" y="190" width="135" height="45" as="geometry" />
        </mxCell>
        <mxCell id="kyaTxUAqdYl-7zdIBq0p-1" value="FALSE" style="edgeStyle=orthogonalEdgeStyle;rounded=0;orthogonalLoop=1;jettySize=auto;html=1;" edge="1" parent="44jfnPMcd00HxYmpUgRE-1" source="IxzSpj61FLZ2-yhwaa_Y-2" target="kyaTxUAqdYl-7zdIBq0p-0">
          <mxGeometry relative="1" as="geometry" />
        </mxCell>
        <mxCell id="kyaTxUAqdYl-7zdIBq0p-62" style="edgeStyle=orthogonalEdgeStyle;rounded=0;orthogonalLoop=1;jettySize=auto;html=1;" edge="1" parent="44jfnPMcd00HxYmpUgRE-1" source="IxzSpj61FLZ2-yhwaa_Y-2">
          <mxGeometry relative="1" as="geometry">
            <mxPoint x="413" y="373" as="targetPoint" />
          </mxGeometry>
        </mxCell>
        <mxCell id="IxzSpj61FLZ2-yhwaa_Y-2" value="salary != -1" style="rhombus;whiteSpace=wrap;html=1;" vertex="1" parent="44jfnPMcd00HxYmpUgRE-1">
          <mxGeometry x="230" y="260" width="95" height="72.5" as="geometry" />
        </mxCell>
        <mxCell id="nxiC7LZ5U8ALAZ2JfrbZ-2" value="" style="edgeStyle=orthogonalEdgeStyle;rounded=0;orthogonalLoop=1;jettySize=auto;html=1;" edge="1" parent="44jfnPMcd00HxYmpUgRE-1" source="nxiC7LZ5U8ALAZ2JfrbZ-0" target="IxzSpj61FLZ2-yhwaa_Y-0">
          <mxGeometry relative="1" as="geometry" />
        </mxCell>
        <mxCell id="nxiC7LZ5U8ALAZ2JfrbZ-0" value="&lt;div&gt;employee = 0&lt;br&gt;&lt;/div&gt;&lt;div&gt;tax = 0&lt;/div&gt;&lt;div&gt;salary = 0&lt;br&gt;&lt;/div&gt;" style="whiteSpace=wrap;html=1;" vertex="1" parent="44jfnPMcd00HxYmpUgRE-1">
          <mxGeometry x="225" y="90" width="105" height="40" as="geometry" />
        </mxCell>
        <mxCell id="kyaTxUAqdYl-7zdIBq0p-3" value="" style="edgeStyle=orthogonalEdgeStyle;rounded=0;orthogonalLoop=1;jettySize=auto;html=1;" edge="1" parent="44jfnPMcd00HxYmpUgRE-1" source="kyaTxUAqdYl-7zdIBq0p-0" target="kyaTxUAqdYl-7zdIBq0p-2">
          <mxGeometry relative="1" as="geometry" />
        </mxCell>
        <mxCell id="kyaTxUAqdYl-7zdIBq0p-0" value="print collectedTax" style="shape=parallelogram;perimeter=parallelogramPerimeter;whiteSpace=wrap;html=1;fixedSize=1;" vertex="1" parent="44jfnPMcd00HxYmpUgRE-1">
          <mxGeometry x="42.5" y="266.25" width="120" height="60" as="geometry" />
        </mxCell>
        <mxCell id="kyaTxUAqdYl-7zdIBq0p-5" value="" style="edgeStyle=orthogonalEdgeStyle;rounded=0;orthogonalLoop=1;jettySize=auto;html=1;" edge="1" parent="44jfnPMcd00HxYmpUgRE-1" source="kyaTxUAqdYl-7zdIBq0p-2" target="kyaTxUAqdYl-7zdIBq0p-4">
          <mxGeometry relative="1" as="geometry" />
        </mxCell>
        <mxCell id="kyaTxUAqdYl-7zdIBq0p-2" value="print employee" style="shape=parallelogram;perimeter=parallelogramPerimeter;whiteSpace=wrap;html=1;fixedSize=1;" vertex="1" parent="44jfnPMcd00HxYmpUgRE-1">
          <mxGeometry x="42.5" y="406.25" width="120" height="60" as="geometry" />
        </mxCell>
        <mxCell id="kyaTxUAqdYl-7zdIBq0p-4" value="END" style="ellipse;whiteSpace=wrap;html=1;" vertex="1" parent="44jfnPMcd00HxYmpUgRE-1">
          <mxGeometry x="42.5" y="536.25" width="120" height="80" as="geometry" />
        </mxCell>
        <mxCell id="kyaTxUAqdYl-7zdIBq0p-35" value="TRUE" style="edgeStyle=orthogonalEdgeStyle;rounded=0;orthogonalLoop=1;jettySize=auto;html=1;" edge="1" parent="44jfnPMcd00HxYmpUgRE-1" target="kyaTxUAqdYl-7zdIBq0p-39">
          <mxGeometry relative="1" as="geometry">
            <mxPoint x="366.252962962963" y="390" as="sourcePoint" />
          </mxGeometry>
        </mxCell>
        <mxCell id="kyaTxUAqdYl-7zdIBq0p-36" value="FALSE" style="edgeStyle=orthogonalEdgeStyle;rounded=0;orthogonalLoop=1;jettySize=auto;html=1;" edge="1" parent="44jfnPMcd00HxYmpUgRE-1">
          <mxGeometry relative="1" as="geometry">
            <mxPoint x="458.752962962963" y="390" as="sourcePoint" />
            <mxPoint x="522.5" y="433.14" as="targetPoint" />
          </mxGeometry>
        </mxCell>
        <mxCell id="kyaTxUAqdYl-7zdIBq0p-38" style="edgeStyle=orthogonalEdgeStyle;rounded=0;orthogonalLoop=1;jettySize=auto;html=1;" edge="1" parent="44jfnPMcd00HxYmpUgRE-1" source="kyaTxUAqdYl-7zdIBq0p-39">
          <mxGeometry relative="1" as="geometry">
            <mxPoint x="605.635083268963" y="938.13" as="targetPoint" />
            <Array as="points">
              <mxPoint x="278" y="938.13" />
            </Array>
          </mxGeometry>
        </mxCell>
        <mxCell id="kyaTxUAqdYl-7zdIBq0p-39" value="taxRate = 0" style="whiteSpace=wrap;html=1;" vertex="1" parent="44jfnPMcd00HxYmpUgRE-1">
          <mxGeometry x="230" y="433.13" width="95" height="43.13" as="geometry" />
        </mxCell>
        <mxCell id="kyaTxUAqdYl-7zdIBq0p-40" value="FALSE" style="edgeStyle=orthogonalEdgeStyle;rounded=0;orthogonalLoop=1;jettySize=auto;html=1;" edge="1" parent="44jfnPMcd00HxYmpUgRE-1">
          <mxGeometry relative="1" as="geometry">
            <mxPoint x="565.0160000000001" y="458.1" as="sourcePoint" />
            <mxPoint x="640" y="503.1300000000001" as="targetPoint" />
          </mxGeometry>
        </mxCell>
        <mxCell id="kyaTxUAqdYl-7zdIBq0p-41" value="" style="edgeStyle=orthogonalEdgeStyle;rounded=0;orthogonalLoop=1;jettySize=auto;html=1;" edge="1" parent="44jfnPMcd00HxYmpUgRE-1" target="kyaTxUAqdYl-7zdIBq0p-53">
          <mxGeometry relative="1" as="geometry">
            <mxPoint x="480.0160000000001" y="458.1" as="sourcePoint" />
          </mxGeometry>
        </mxCell>
        <mxCell id="kyaTxUAqdYl-7zdIBq0p-43" value="FALSE" style="edgeStyle=orthogonalEdgeStyle;rounded=0;orthogonalLoop=1;jettySize=auto;html=1;" edge="1" parent="44jfnPMcd00HxYmpUgRE-1">
          <mxGeometry relative="1" as="geometry">
            <mxPoint x="685.0120000000002" y="528.0999999999999" as="sourcePoint" />
            <mxPoint x="765" y="573.1300000000001" as="targetPoint" />
          </mxGeometry>
        </mxCell>
        <mxCell id="kyaTxUAqdYl-7zdIBq0p-44" value="" style="edgeStyle=orthogonalEdgeStyle;rounded=0;orthogonalLoop=1;jettySize=auto;html=1;" edge="1" parent="44jfnPMcd00HxYmpUgRE-1" target="kyaTxUAqdYl-7zdIBq0p-55">
          <mxGeometry relative="1" as="geometry">
            <mxPoint x="595.0120000000002" y="528.0999999999999" as="sourcePoint" />
          </mxGeometry>
        </mxCell>
        <mxCell id="kyaTxUAqdYl-7zdIBq0p-46" value="FALSE" style="edgeStyle=orthogonalEdgeStyle;rounded=0;orthogonalLoop=1;jettySize=auto;html=1;" edge="1" parent="44jfnPMcd00HxYmpUgRE-1">
          <mxGeometry relative="1" as="geometry">
            <mxPoint x="815.01" y="603.0999999999999" as="sourcePoint" />
            <mxPoint x="895" y="653.1300000000001" as="targetPoint" />
          </mxGeometry>
        </mxCell>
        <mxCell id="kyaTxUAqdYl-7zdIBq0p-47" value="" style="edgeStyle=orthogonalEdgeStyle;rounded=0;orthogonalLoop=1;jettySize=auto;html=1;" edge="1" parent="44jfnPMcd00HxYmpUgRE-1" target="kyaTxUAqdYl-7zdIBq0p-57">
          <mxGeometry relative="1" as="geometry">
            <mxPoint x="715.01" y="603.0999999999999" as="sourcePoint" />
          </mxGeometry>
        </mxCell>
        <mxCell id="kyaTxUAqdYl-7zdIBq0p-49" value="" style="edgeStyle=orthogonalEdgeStyle;rounded=0;orthogonalLoop=1;jettySize=auto;html=1;" edge="1" parent="44jfnPMcd00HxYmpUgRE-1" target="kyaTxUAqdYl-7zdIBq0p-59">
          <mxGeometry relative="1" as="geometry">
            <mxPoint x="845.01" y="683.0999999999999" as="sourcePoint" />
          </mxGeometry>
        </mxCell>
        <mxCell id="kyaTxUAqdYl-7zdIBq0p-50" value="" style="edgeStyle=orthogonalEdgeStyle;rounded=0;orthogonalLoop=1;jettySize=auto;html=1;" edge="1" parent="44jfnPMcd00HxYmpUgRE-1" target="kyaTxUAqdYl-7zdIBq0p-61">
          <mxGeometry relative="1" as="geometry">
            <mxPoint x="945.01" y="683.0999999999999" as="sourcePoint" />
          </mxGeometry>
        </mxCell>
        <mxCell id="kyaTxUAqdYl-7zdIBq0p-52" style="edgeStyle=orthogonalEdgeStyle;rounded=0;orthogonalLoop=1;jettySize=auto;html=1;entryX=0;entryY=0.5;entryDx=0;entryDy=0;" edge="1" parent="44jfnPMcd00HxYmpUgRE-1" source="kyaTxUAqdYl-7zdIBq0p-53">
          <mxGeometry relative="1" as="geometry">
            <mxPoint x="605" y="933.13" as="targetPoint" />
            <Array as="points">
              <mxPoint x="379" y="933.13" />
            </Array>
          </mxGeometry>
        </mxCell>
        <mxCell id="kyaTxUAqdYl-7zdIBq0p-53" value="&lt;br&gt;taxRate = 0.06&lt;br&gt;" style="whiteSpace=wrap;html=1;" vertex="1" parent="44jfnPMcd00HxYmpUgRE-1">
          <mxGeometry x="325" y="503.13" width="107.5" height="34.99" as="geometry" />
        </mxCell>
        <mxCell id="kyaTxUAqdYl-7zdIBq0p-54" style="edgeStyle=orthogonalEdgeStyle;rounded=0;orthogonalLoop=1;jettySize=auto;html=1;entryX=0;entryY=0.5;entryDx=0;entryDy=0;" edge="1" parent="44jfnPMcd00HxYmpUgRE-1" source="kyaTxUAqdYl-7zdIBq0p-55">
          <mxGeometry relative="1" as="geometry">
            <mxPoint x="605" y="933.13" as="targetPoint" />
            <Array as="points">
              <mxPoint x="495" y="933.13" />
            </Array>
          </mxGeometry>
        </mxCell>
        <mxCell id="kyaTxUAqdYl-7zdIBq0p-55" value="&lt;br&gt;taxRate = 0.08" style="whiteSpace=wrap;html=1;" vertex="1" parent="44jfnPMcd00HxYmpUgRE-1">
          <mxGeometry x="465" y="563.13" width="95" height="35" as="geometry" />
        </mxCell>
        <mxCell id="kyaTxUAqdYl-7zdIBq0p-56" style="edgeStyle=orthogonalEdgeStyle;rounded=0;orthogonalLoop=1;jettySize=auto;html=1;" edge="1" parent="44jfnPMcd00HxYmpUgRE-1" source="kyaTxUAqdYl-7zdIBq0p-57">
          <mxGeometry relative="1" as="geometry">
            <mxPoint x="627.5" y="913.1299999999998" as="targetPoint" />
          </mxGeometry>
        </mxCell>
        <mxCell id="kyaTxUAqdYl-7zdIBq0p-57" value="&lt;br&gt;taxRate = 0.12&lt;br&gt;" style="whiteSpace=wrap;html=1;" vertex="1" parent="44jfnPMcd00HxYmpUgRE-1">
          <mxGeometry x="585" y="643.13" width="85" height="40" as="geometry" />
        </mxCell>
        <mxCell id="kyaTxUAqdYl-7zdIBq0p-58" style="edgeStyle=orthogonalEdgeStyle;rounded=0;orthogonalLoop=1;jettySize=auto;html=1;entryX=1;entryY=0.5;entryDx=0;entryDy=0;" edge="1" parent="44jfnPMcd00HxYmpUgRE-1" source="kyaTxUAqdYl-7zdIBq0p-59">
          <mxGeometry relative="1" as="geometry">
            <Array as="points">
              <mxPoint x="745" y="933.13" />
            </Array>
            <mxPoint x="645" y="933.13" as="targetPoint" />
          </mxGeometry>
        </mxCell>
        <mxCell id="kyaTxUAqdYl-7zdIBq0p-59" value="&lt;br&gt;taxRate = 0.16&lt;br&gt;" style="whiteSpace=wrap;html=1;" vertex="1" parent="44jfnPMcd00HxYmpUgRE-1">
          <mxGeometry x="695" y="723.13" width="90" height="40" as="geometry" />
        </mxCell>
        <mxCell id="kyaTxUAqdYl-7zdIBq0p-60" style="edgeStyle=orthogonalEdgeStyle;rounded=0;orthogonalLoop=1;jettySize=auto;html=1;" edge="1" parent="44jfnPMcd00HxYmpUgRE-1" source="kyaTxUAqdYl-7zdIBq0p-61">
          <mxGeometry relative="1" as="geometry">
            <mxPoint x="645" y="933.1299999999998" as="targetPoint" />
            <Array as="points">
              <mxPoint x="1035" y="933.13" />
            </Array>
          </mxGeometry>
        </mxCell>
        <mxCell id="kyaTxUAqdYl-7zdIBq0p-61" value="taxRate = 0.40" style="whiteSpace=wrap;html=1;" vertex="1" parent="44jfnPMcd00HxYmpUgRE-1">
          <mxGeometry x="985" y="723.13" width="100" height="40" as="geometry" />
        </mxCell>
        <mxCell id="kyaTxUAqdYl-7zdIBq0p-67" value="" style="edgeStyle=orthogonalEdgeStyle;rounded=0;orthogonalLoop=1;jettySize=auto;html=1;" edge="1" parent="44jfnPMcd00HxYmpUgRE-1" source="kyaTxUAqdYl-7zdIBq0p-63" target="kyaTxUAqdYl-7zdIBq0p-66">
          <mxGeometry relative="1" as="geometry" />
        </mxCell>
        <mxCell id="kyaTxUAqdYl-7zdIBq0p-63" value="" style="ellipse;whiteSpace=wrap;html=1;aspect=fixed;" vertex="1" parent="44jfnPMcd00HxYmpUgRE-1">
          <mxGeometry x="606.25" y="910" width="42.5" height="42.5" as="geometry" />
        </mxCell>
        <mxCell id="kyaTxUAqdYl-7zdIBq0p-69" value="" style="edgeStyle=orthogonalEdgeStyle;rounded=0;orthogonalLoop=1;jettySize=auto;html=1;" edge="1" parent="44jfnPMcd00HxYmpUgRE-1" source="kyaTxUAqdYl-7zdIBq0p-66" target="kyaTxUAqdYl-7zdIBq0p-68">
          <mxGeometry relative="1" as="geometry" />
        </mxCell>
        <mxCell id="kyaTxUAqdYl-7zdIBq0p-66" value="tax = salary * taxRate" style="whiteSpace=wrap;html=1;" vertex="1" parent="44jfnPMcd00HxYmpUgRE-1">
          <mxGeometry x="567.5" y="1023.75" width="120" height="60" as="geometry" />
        </mxCell>
        <mxCell id="kyaTxUAqdYl-7zdIBq0p-73" value="" style="edgeStyle=orthogonalEdgeStyle;rounded=0;orthogonalLoop=1;jettySize=auto;html=1;" edge="1" parent="44jfnPMcd00HxYmpUgRE-1" source="kyaTxUAqdYl-7zdIBq0p-68" target="kyaTxUAqdYl-7zdIBq0p-72">
          <mxGeometry relative="1" as="geometry" />
        </mxCell>
        <mxCell id="kyaTxUAqdYl-7zdIBq0p-68" value="totalTax+= tax" style="whiteSpace=wrap;html=1;" vertex="1" parent="44jfnPMcd00HxYmpUgRE-1">
          <mxGeometry x="567.5" y="1163.75" width="120" height="60" as="geometry" />
        </mxCell>
        <mxCell id="kyaTxUAqdYl-7zdIBq0p-75" value="" style="edgeStyle=orthogonalEdgeStyle;rounded=0;orthogonalLoop=1;jettySize=auto;html=1;" edge="1" parent="44jfnPMcd00HxYmpUgRE-1" source="kyaTxUAqdYl-7zdIBq0p-72" target="kyaTxUAqdYl-7zdIBq0p-74">
          <mxGeometry relative="1" as="geometry" />
        </mxCell>
        <mxCell id="kyaTxUAqdYl-7zdIBq0p-72" value="netSalary = salary - tax" style="whiteSpace=wrap;html=1;" vertex="1" parent="44jfnPMcd00HxYmpUgRE-1">
          <mxGeometry x="567.5" y="1303.75" width="120" height="60" as="geometry" />
        </mxCell>
        <mxCell id="kyaTxUAqdYl-7zdIBq0p-77" value="" style="edgeStyle=orthogonalEdgeStyle;rounded=0;orthogonalLoop=1;jettySize=auto;html=1;" edge="1" parent="44jfnPMcd00HxYmpUgRE-1" source="kyaTxUAqdYl-7zdIBq0p-74" target="kyaTxUAqdYl-7zdIBq0p-76">
          <mxGeometry relative="1" as="geometry" />
        </mxCell>
        <mxCell id="kyaTxUAqdYl-7zdIBq0p-74" value="print netSalary" style="shape=parallelogram;perimeter=parallelogramPerimeter;whiteSpace=wrap;html=1;fixedSize=1;" vertex="1" parent="44jfnPMcd00HxYmpUgRE-1">
          <mxGeometry x="567.5" y="1443.75" width="120" height="60" as="geometry" />
        </mxCell>
        <mxCell id="kyaTxUAqdYl-7zdIBq0p-83" value="" style="edgeStyle=orthogonalEdgeStyle;rounded=0;orthogonalLoop=1;jettySize=auto;html=1;" edge="1" parent="44jfnPMcd00HxYmpUgRE-1" source="kyaTxUAqdYl-7zdIBq0p-76" target="kyaTxUAqdYl-7zdIBq0p-82">
          <mxGeometry relative="1" as="geometry" />
        </mxCell>
        <mxCell id="kyaTxUAqdYl-7zdIBq0p-76" value="print &quot;Enter salary&quot;" style="shape=parallelogram;perimeter=parallelogramPerimeter;whiteSpace=wrap;html=1;fixedSize=1;" vertex="1" parent="44jfnPMcd00HxYmpUgRE-1">
          <mxGeometry x="567.5" y="1583.75" width="120" height="60" as="geometry" />
        </mxCell>
        <mxCell id="kyaTxUAqdYl-7zdIBq0p-84" style="edgeStyle=orthogonalEdgeStyle;rounded=0;orthogonalLoop=1;jettySize=auto;html=1;entryX=0.5;entryY=0;entryDx=0;entryDy=0;" edge="1" parent="44jfnPMcd00HxYmpUgRE-1" source="kyaTxUAqdYl-7zdIBq0p-82" target="IxzSpj61FLZ2-yhwaa_Y-2">
          <mxGeometry relative="1" as="geometry">
            <mxPoint x="1300" y="230" as="targetPoint" />
            <Array as="points">
              <mxPoint x="1270" y="1754" />
              <mxPoint x="1270" y="240" />
              <mxPoint x="278" y="240" />
            </Array>
          </mxGeometry>
        </mxCell>
        <mxCell id="kyaTxUAqdYl-7zdIBq0p-82" value="READ salary" style="shape=parallelogram;perimeter=parallelogramPerimeter;whiteSpace=wrap;html=1;fixedSize=1;" vertex="1" parent="44jfnPMcd00HxYmpUgRE-1">
          <mxGeometry x="567.5" y="1723.75" width="120" height="60" as="geometry" />
        </mxCell>
        <mxCell id="kyaTxUAqdYl-7zdIBq0p-87" value="salary &amp;lt; 3000 ?" style="rhombus;whiteSpace=wrap;html=1;" vertex="1" parent="44jfnPMcd00HxYmpUgRE-1">
          <mxGeometry x="365" y="353.14" width="100" height="80" as="geometry" />
        </mxCell>
        <mxCell id="kyaTxUAqdYl-7zdIBq0p-88" value="&#xa;salary &amp;lt; 5000 ?&#xa;&#xa;" style="rhombus;whiteSpace=wrap;html=1;" vertex="1" parent="44jfnPMcd00HxYmpUgRE-1">
          <mxGeometry x="475" y="426.26" width="105" height="76.87" as="geometry" />
        </mxCell>
        <mxCell id="kyaTxUAqdYl-7zdIBq0p-89" value="salary &amp;lt; 7000 ?" style="rhombus;whiteSpace=wrap;html=1;" vertex="1" parent="44jfnPMcd00HxYmpUgRE-1">
          <mxGeometry x="580" y="503.13" width="120" height="80" as="geometry" />
        </mxCell>
        <mxCell id="kyaTxUAqdYl-7zdIBq0p-90" value="&#xa;salary &amp;lt; 8000 ?&#xa;&#xa;" style="rhombus;whiteSpace=wrap;html=1;" vertex="1" parent="44jfnPMcd00HxYmpUgRE-1">
          <mxGeometry x="710" y="563.13" width="120" height="80" as="geometry" />
        </mxCell>
        <mxCell id="kyaTxUAqdYl-7zdIBq0p-91" value="salary &amp;lt; 9000 ?" style="rhombus;whiteSpace=wrap;html=1;" vertex="1" parent="44jfnPMcd00HxYmpUgRE-1">
          <mxGeometry x="840" y="643.13" width="100" height="80" as="geometry" />
        </mxCell>
      </root>
    </mxGraphModel>
  </diagram>
</mxfile>
